<svg width="9" height="10" viewBox="0 0 9 10" fill="none" xmlns="http://www.w3.org/2000/svg">
<g id="faEye" clip-path="url(#clip0_15_61)">
<path id="Vector" d="M4.5001 1.5C3.2376 1.5 2.22666 2.075 1.49072 2.75938C0.759473 3.4375 0.27041 4.25 0.0391602 4.80781C-0.0124023 4.93125 -0.0124023 5.06875 0.0391602 5.19219C0.27041 5.75 0.759473 6.5625 1.49072 7.24063C2.22666 7.925 3.2376 8.5 4.5001 8.5C5.7626 8.5 6.77354 7.925 7.50947 7.24063C8.24072 6.56094 8.72978 5.75 8.9626 5.19219C9.01416 5.06875 9.01416 4.93125 8.9626 4.80781C8.72978 4.25 8.24072 3.4375 7.50947 2.75938C6.77354 2.075 5.7626 1.5 4.5001 1.5ZM2.2501 5C2.2501 4.40326 2.48715 3.83097 2.90911 3.40901C3.33106 2.98705 3.90336 2.75 4.5001 2.75C5.09683 2.75 5.66913 2.98705 6.09109 3.40901C6.51304 3.83097 6.7501 4.40326 6.7501 5C6.7501 5.59674 6.51304 6.16903 6.09109 6.59099C5.66913 7.01295 5.09683 7.25 4.5001 7.25C3.90336 7.25 3.33106 7.01295 2.90911 6.59099C2.48715 6.16903 2.2501 5.59674 2.2501 5ZM4.5001 4C4.5001 4.55156 4.05166 5 3.5001 5C3.38916 5 3.28291 4.98125 3.18291 4.94844C3.09697 4.92031 2.99697 4.97344 3.0001 5.06406C3.00479 5.17188 3.02041 5.27969 3.0501 5.3875C3.26416 6.1875 4.0876 6.6625 4.8876 6.44844C5.6876 6.23438 6.1626 5.41094 5.94854 4.61094C5.7751 3.9625 5.20166 3.52656 4.56416 3.5C4.47354 3.49688 4.42041 3.59531 4.44854 3.68281C4.48135 3.78281 4.5001 3.88906 4.5001 4Z" fill="#C5F1FF"/>
</g>
<defs>
<clipPath id="clip0_15_61">
<rect width="9" height="9" fill="white" transform="translate(0 0.5)"/>
</clipPath>
</defs>
</svg>
