<svg width="10" height="9" viewBox="0 0 10 9" fill="none" xmlns="http://www.w3.org/2000/svg">
<path id="Vector" d="M1.33672 5.30832L4.51309 8.77595C4.64492 8.91984 4.81895 9 5 9C5.18105 9 5.35508 8.91984 5.48691 8.77595L8.66328 5.30832C9.19766 4.72661 9.5 3.91057 9.5 3.05754V2.93832C9.5 1.50153 8.6123 0.276447 7.40117 0.0400639C6.59961 -0.116154 5.78398 0.190116 5.21094 0.860209L5 1.10687L4.78906 0.860209C4.21602 0.190116 3.40039 -0.116154 2.59883 0.0400639C1.3877 0.276447 0.5 1.50153 0.5 2.93832V3.05754C0.5 3.91057 0.802344 4.72661 1.33672 5.30832Z" fill="#C5F1FF"/>
</svg>
